<svg width="20" height="20" viewBox="0 0 20 20" fill="none" xmlns="http://www.w3.org/2000/svg">
<path d="M10.0008 8.30117C10.9397 8.30117 11.7008 9.06229 11.7008 10.0012C11.7008 10.9401 10.9397 11.7012 10.0008 11.7012C9.0619 11.7012 8.30078 10.9401 8.30078 10.0012C8.30078 9.06229 9.0619 8.30117 10.0008 8.30117Z" fill="black"/>
<path d="M15.5008 8.30117C16.4397 8.30117 17.2008 9.06229 17.2008 10.0012C17.2008 10.9401 16.4397 11.7012 15.5008 11.7012C14.5619 11.7012 13.8008 10.9401 13.8008 10.0012C13.8008 9.06229 14.5619 8.30117 15.5008 8.30117Z" fill="black"/>
<path d="M4.50078 8.30117C5.43967 8.30117 6.20078 9.06229 6.20078 10.0012C6.20078 10.9401 5.43967 11.7012 4.50078 11.7012C3.5619 11.7012 2.80078 10.9401 2.80078 10.0012C2.80078 9.06229 3.5619 8.30117 4.50078 8.30117Z" fill="black"/>
</svg>
