<svg width="20" height="20" viewBox="0 0 20 20" fill="none" xmlns="http://www.w3.org/2000/svg">
<path d="M4 14.925C5.14285 15.4781 6.85713 15.9999 9.14283 15.9999C12 15.9999 15.9999 15.4781 15.9999 13.3912C15.9999 10.7165 12 10.2608 9.14283 10.2608C6.2857 10.2608 4 10.7825 4 11.826C4 13.502 7.42856 13.3912 9.14283 13.3912C12 13.3912 15.9741 12.4681 15.9999 9.21733C16.0176 6.99329 11.8367 6.03888 9.22439 6.03888C7.42856 6.03888 4 6.21342 4 7.65213C4 8.69559 6.85713 8.69559 9.14283 8.69559C11.3732 8.69559 15.9999 8.38375 15.9999 6.03888C15.9999 5.04347 14.8571 4 13.1428 4" stroke="black" stroke-linecap="round"/>
</svg>
