<svg width="20" height="20" viewBox="0 0 20 20" fill="none" xmlns="http://www.w3.org/2000/svg">
<path d="M10 10C8.25 10 6.5 8.72727 6.5 6.5C6.5 4.27273 8.25 3 10 3C11.75 3 13.5 4.27273 13.5 6.5" stroke="black"/>
<path d="M10 10C11.75 10 13.5 11.2727 13.5 13.5C13.5 15.7273 11.75 17 10 17C8.25 17 6.5 15.7273 6.5 13.5" stroke="black"/>
<path d="M10 10C10 11.75 8.72727 13.5 6.5 13.5C4.27273 13.5 3 11.75 3 10C3 8.25 4.27273 6.5 6.5 6.5" stroke="black"/>
<path d="M10 10C10 8.25 11.2727 6.5 13.5 6.5C15.7273 6.5 17 8.25 17 10C17 11.75 15.7273 13.5 13.5 13.5" stroke="black"/>
</svg>
